<group>
ampeg_release=0.5




<region>
sample=..\Samples\Legato\ff\F3.wav

lokey=0
hikey=55
pitch_keycenter=53

lovel=102
hivel=127



<region>
sample=..\Samples\Legato\ff\Bb3.wav

lokey=56
hikey=62
pitch_keycenter=58

lovel=102
hivel=127



<region>
sample=..\Samples\Legato\ff\F4.wav

lokey=63
hikey=67
pitch_keycenter=65

lovel=102
hivel=127



<region>
sample=..\Samples\Legato\ff\Bb4.wav

lokey=68
hikey=72
pitch_keycenter=70

lovel=102
hivel=127




<region>
sample=..\Samples\Legato\ff\D5.wav

lokey=73
hikey=127
pitch_keycenter=74

lovel=102
hivel=127




<region>
sample= \..\Samples\Legato\f\F3.wav

lokey=0
hikey=55
pitch_keycenter=53

lovel=52
hivel=76



<region>
sample=..\Samples\Legato\f\Bb3.wav

lokey=56
hikey=58
pitch_keycenter=58

lovel=52
hivel=76



<region>
sample=..\Samples\Legato\f\B3.wav

key=59
pitch_keycenter=59

lovel=52
hivel=76



<region>
sample=..\Samples\Legato\f\C4.wav

key=60
pitch_keycenter=60

lovel=52
hivel=76


<region>
sample=..\Samples\Legato\f\C#4.wav

key=61
pitch_keycenter=61

lovel=52
hivel=76



<region>
sample=..\Samples\Legato\f\D4.wav

key=62
pitch_keycenter=62

lovel=52
hivel=76



<region>
sample=..\Samples\Legato\f\D#4.wav

key=63
pitch_keycenter=63

lovel=52
hivel=76



<region>
sample=..\Samples\Legato\f\E4.wav

key=64
pitch_keycenter=64

lovel=52
hivel=76


<region>
sample=..\Samples\Legato\f\F4.wav

key=65
pitch_keycenter=65

lovel=52
hivel=76



<region>
sample=..\Samples\Legato\f\F#4.wav

key=66
pitch_keycenter=66

lovel=52
hivel=76



<region>
sample=..\Samples\Legato\f\G4.wav

key=67
pitch_keycenter=67

lovel=52
hivel=76



<region>
sample=..\Samples\Legato\f\G#4.wav

key=68
pitch_keycenter=68

lovel=52
hivel=76


<region>
sample=..\Samples\Legato\f\A4.wav

key=69
pitch_keycenter=69

lovel=52
hivel=76


<region>
sample=..\Samples\Legato\f\Bb4.wav

lokey=70
hikey=72
pitch_keycenter=70

lovel=52
hivel=76




<region>
sample=..\Samples\Legato\f\D5.wav

lokey=73
hikey=127
pitch_keycenter=74

lovel=52
hivel=76



<region>
sample= \..\Samples\Legato\mf\F3.wav

lokey=0
hikey=55
pitch_keycenter=53

lovel=52
hivel=76



<region>
sample=..\Samples\Legato\mf\Bb3.wav

lokey=56
hikey=58
pitch_keycenter=58

lovel=52
hivel=76



<region>
sample=..\Samples\Legato\mf\B3.wav

key=59
pitch_keycenter=59

lovel=52
hivel=76



<region>
sample=..\Samples\Legato\mf\C4.wav

key=60
pitch_keycenter=60

lovel=52
hivel=76


<region>
sample=..\Samples\Legato\mf\C#4.wav

key=61
pitch_keycenter=61

lovel=52
hivel=76



<region>
sample=..\Samples\Legato\mf\D4.wav

key=62
pitch_keycenter=62

lovel=52
hivel=76



<region>
sample=..\Samples\Legato\mf\D#4.wav

key=63
pitch_keycenter=63

lovel=52
hivel=76



<region>
sample=..\Samples\Legato\mf\E4.wav

key=64
pitch_keycenter=64

lovel=52
hivel=76


<region>
sample=..\Samples\Legato\mf\F4.wav

key=65
pitch_keycenter=65

lovel=52
hivel=76



<region>
sample=..\Samples\Legato\mf\F#4.wav

key=66
pitch_keycenter=66

lovel=52
hivel=76



<region>
sample=..\Samples\Legato\mf\G4.wav

key=67
pitch_keycenter=67

lovel=52
hivel=76



<region>
sample=..\Samples\Legato\mf\G#4.wav

key=68
pitch_keycenter=68

lovel=52
hivel=76


<region>
sample=..\Samples\Legato\mf\A4.wav

key=69
pitch_keycenter=69

lovel=52
hivel=76


<region>
sample=..\Samples\Legato\mf\Bb4.wav

lokey=70
hikey=72
pitch_keycenter=70

lovel=52
hivel=76




<region>
sample=..\Samples\Legato\mf\D5.wav

lokey=73
hikey=127
pitch_keycenter=74

lovel=52
hivel=76




<region>
sample= \..\Samples\Legato\mp\F3.wav

lokey=0
hikey=55
pitch_keycenter=53

lovel=26
hivel=51



<region>
sample=..\Samples\Legato\mp\Bb3.wav

lokey=56
hikey=58
pitch_keycenter=58

llovel=26
hivel=51



<region>
sample=..\Samples\Legato\mp\B3.wav

key=59
pitch_keycenter=59

lovel=26
hivel=51



<region>
sample=..\Samples\Legato\mp\C4.wav

key=60
pitch_keycenter=60

lovel=26
hivel=51


<region>
sample=..\Samples\Legato\mp\C#4.wav

key=61
pitch_keycenter=61

lovel=26
hivel=51



<region>
sample=..\Samples\Legato\mp\D4.wav

key=62
pitch_keycenter=62

lovel=26
hivel=51



<region>
sample=..\Samples\Legato\mp\D#4.wav

key=63
pitch_keycenter=63

lovel=26
hivel=51



<region>
sample=..\Samples\Legato\mp\E4.wav

key=64
pitch_keycenter=64

lovel=26
hivel=51



<region>
sample=..\Samples\Legato\mp\F4.wav

key=65
pitch_keycenter=65

lovel=26
hivel=51



<region>
sample=..\Samples\Legato\mp\F#4.wav

key=66
pitch_keycenter=66

lovel=26
hivel=51



<region>
sample=..\Samples\Legato\mp\G4.wav

key=67
pitch_keycenter=67

lovel=26
hivel=51



<region>
sample=..\Samples\Legato\mp\G#4.wav

key=68
pitch_keycenter=68

lovel=26
hivel=51



<region>
sample=..\Samples\Legato\mp\A4.wav

key=69
pitch_keycenter=69

lovel=26
hivel=51



<region>
sample=..\Samples\Legato\mp\Bb4.wav

lokey=70
hikey=72
pitch_keycenter=70

lovel=26
hivel=51




<region>
sample=..\Samples\Legato\mp\D5.wav

lokey=73
hikey=127
pitch_keycenter=74

lovel=26
hivel=51



<region>
sample= \..\Samples\Legato\p\F3.wav

lokey=0
hikey=55
pitch_keycenter=53

lovel=0
hivel=25



<region>
sample=..\Samples\Legato\p\Bb3.wav

lokey=56
hikey=58
pitch_keycenter=58

lovel=0
hivel=25



<region>
sample=..\Samples\Legato\p\B3.wav

key=59
pitch_keycenter=59

lovel=0
hivel=25



<region>
sample=..\Samples\Legato\p\C4.wav

key=60
pitch_keycenter=60

lovel=0
hivel=25


<region>
sample=..\Samples\Legato\p\C#4.wav

key=61
pitch_keycenter=61

lovel=0
hivel=25



<region>
sample=..\Samples\Legato\p\D4.wav

key=62
pitch_keycenter=62

lovel=0
hivel=25



<region>
sample=..\Samples\Legato\p\D#4.wav

key=63
pitch_keycenter=63

lovel=0
hivel=25



<region>
sample=..\Samples\Legato\p\E4.wav

key=64
pitch_keycenter=64

lovel=0
hivel=25



<region>
sample=..\Samples\Legato\p\F4.wav

key=65
pitch_keycenter=65

lovel=0
hivel=25



<region>
sample=..\Samples\Legato\p\F#4.wav

key=66
pitch_keycenter=66

lovel=0
hivel=25



<region>
sample=..\Samples\Legato\p\G4.wav

key=67
pitch_keycenter=67

lovel=0
hivel=25



<region>
sample=..\Samples\Legato\p\G#4.wav

key=68
pitch_keycenter=68

lovel=0
hivel=25



<region>
sample=..\Samples\Legato\p\A4.wav

key=69
pitch_keycenter=69

lovel=0
hivel=25



<region>
sample=..\Samples\Legato\p\Bb4.wav

lokey=70
hikey=72
pitch_keycenter=70

lovel=0
hivel=25




<region>
sample=..\Samples\Legato\p\D5.wav

lokey=73
hikey=127
pitch_keycenter=74

lovel=0
hivel=25